<svg xmlns="http://www.w3.org/2000/svg" width="1000" height="500" preserveAspectRatio="xMidYMid meet" version="1.0" viewBox="0 0 750 375" zoomAndPan="magnify"><defs><clipPath id="a"><path d="M37.605 131h96.645v206.852H37.605Zm0 0" clip-rule="nonzero"/></clipPath><clipPath id="b"><path d="M43.383 73H116v80H43.383Zm0 0" clip-rule="nonzero"/></clipPath><clipPath id="c"><path d="M94 57h218v130.848H94Zm0 0" clip-rule="nonzero"/></clipPath><clipPath id="d"><path d="M115 22.848h216.383V171H115Zm0 0" clip-rule="nonzero"/></clipPath></defs><path d="M-75-37.5h900v450H-75z" fill="#fff" fill-opacity="1"/><path d="M-75-37.5h900v450H-75z" fill="#00a" fill-opacity="1"/><path d="M-75-37.5h900v450H-75z" fill="#fff" fill-opacity="1"/><path d="M-75-37.5h900v450H-75z" fill="#00a" fill-opacity="1"/><g clip-path="url(#a)"><path d="m73.063 304.5-11.391 32.02c-.16.644-.8 1.125-1.442 1.125-.164 0-.324 0-.484-.16-.8-.32-1.281-1.286-.96-2.09l11.07-31.055-19.415-18.02-9.464 24.293c-.325.645-.805.969-1.446.969-.16 0-.32 0-.64-.164-.805-.32-1.286-1.285-.965-2.09l68.992-176.984c.32-.805 1.285-1.29 2.086-.965.805.32 1.285 1.285.965 2.09l-12.356 32.02 21.18 1.609 12.191-34.274c.325-.804 1.286-1.285 2.086-.965.805.32 1.285 1.29.965 2.094Zm-21.5-21.238 19.253 17.86 10.27-28.638-19.895-13.84Zm10.914-27.672 19.894 13.836 10.75-30.25-20.058-10.778Zm11.71-30.25 19.895 10.781 11.555-32.34-21.34-4.508Zm22.141-56.637-10.75 27.676 21.18 4.504 10.91-30.73Zm0 0" fill="#fff" fill-opacity="1" fill-rule="nonzero"/></g><path d="M120.316 121.145h8.168v-8.196h-8.168v8.196m-10.988 0h8.164v-8.196h-8.164v8.196m10.988 11.02h8.168v-8.188h-8.168v8.187m-10.988 0h8.164v-8.187h-8.164v8.187" fill="#fff" fill-opacity="1" fill-rule="nonzero"/><g clip-path="url(#b)"><path d="m43.535 152.95 36.91-12.622 34.606-51.293c-4.598-5.824-8.856-11.238-12.543-15.918L43.535 152.95" fill="#fff" fill-opacity="1" fill-rule="nonzero"/></g><g clip-path="url(#c)"><path d="M311.11 187.84c-50.29-7.219-121.77-17.766-127.044-19.3-3.562-3.188-36.156-44.06-66.761-82.84-4.211-5.337-8.383-10.634-12.438-15.782-3.41-4.34-6.734-8.57-9.93-12.645l36.317 3.215c2.039 2.59 4.101 5.203 6.164 7.825 30.613 38.785 63.207 79.652 66.77 82.843 3.996 1.164 46.105 7.516 88.16 13.668l18.761 23.016" fill="#fff" fill-opacity="1" fill-rule="nonzero"/></g><g clip-path="url(#d)"><path d="M331.23 170.457c-12.136-1.742-25.507-3.68-38.882-5.633-42.055-6.152-84.164-12.504-88.16-13.668-3.563-3.191-36.157-44.058-66.77-82.844-2.063-2.62-4.125-5.234-6.164-7.824-2.117-2.683-4.211-5.34-6.274-7.957-3.406-4.336-6.73-8.57-9.93-12.64l71.673 6.351 9.488 19.781V22.852h23.203V49.14l13.922 1.226 97.894 120.09" fill="#fff" fill-opacity="1" fill-rule="nonzero"/></g><path d="M134.383 260.87c5.945 8.294 12.816 16.977 20.61 26.048l-.157 1.265c-3.117.774-6.793 1.407-11.031 1.907l-1.328-.657c-7.293-9.687-13.778-18.984-19.454-27.89l-.171 10.687.421 17.031h-11.265l.578-16.03-.578-37.735h11.437l-.422 24.969 15.11-19.797 3.094-5.172h12.187Zm82.395 28.391h-10.015l-.844-16.28-1.922-20.704h-.828l-12.016 31.313h-8.765l-10.938-31.313h-.75l-2.094 19.625-1.171 17.36h-9.516l5.422-53.766h13.031l2.172 7.937 8.516 25.453h.75l8.937-25.453 2.422-7.937h12.766Zm61.272 0h-11.844l-8.016-25.718h-.75l-8.11 25.718h-11.937l-15.015-53.765h11.093l.844 6.594 9.516 35.484h.75l9.094-28.969-3.844-13.11h11.531l1.25 7.766 9.688 34.313h.75l10.843-34.734 1.344-7.344h10.516Zm66.71-8.437-.75 8.437h-29.062l.594-16.03-.594-37.735h11.532l-.672 36.734.25 7.688h18.03Zm21.368-31.141c5.676 0 10.016 1.672 13.016 5.016 3.008 3.344 4.515 8.156 4.515 14.437 0 6.793-1.617 11.985-4.843 15.579-3.23 3.585-7.875 5.375-13.938 5.375-5.68 0-10.023-1.665-13.031-5-3-3.344-4.5-8.157-4.5-14.438 0-6.79 1.613-11.984 4.844-15.578 3.226-3.594 7.875-5.39 13.937-5.39Zm-.75 7.516c-2.668 0-4.601.89-5.797 2.672-1.199 1.781-1.797 4.652-1.797 8.61 0 5.116.61 8.76 1.829 10.937 1.226 2.168 3.234 3.25 6.015 3.25 2.676 0 4.61-.875 5.797-2.625 1.195-1.758 1.797-4.641 1.797-8.641 0-5.07-.625-8.707-1.875-10.906-1.25-2.196-3.242-3.297-5.969-3.297Zm46.085-26.703c2.281 0 4.703.25 7.266.75l-.75 8.265-.75.5c-2.625-1.113-4.914-1.671-6.86-1.671-3.449 0-5.199 1.976-5.25 5.921l-.078 6.516h9.422l.344.578-.5 6.094h-9.438l-.25 14.703.579 17.11h-11.094l.656-16.11-.156-15.703h-5.844l-.422-.578.578-6.094h5.594l-.078-4.594c0-5.008 1.488-8.875 4.469-11.593 2.976-2.727 7.164-4.094 12.562-4.094Zm0 0" fill="#fff" fill-opacity="1"/><path d="M434.414 281.074c1.781 0 3.644-.469 5.594-1.406l.922.828-1.079 6.594c-2.843 1.449-5.742 2.335-8.687 2.671-7.512-.78-11.266-4.453-11.266-11.015l.407-6.938-.079-14.36h-5.171l-.422-.577.593-6.094h4.922v-6.437l10.094-3.25.75.671-.25 9.016h9.938l.343.578-.515 6.094h-9.922l-.5 18.703c0 1.781.332 3.047 1 3.797.664.75 1.773 1.125 3.328 1.125Zm56.026-.25-.75 8.437h-29.062l.594-16.03-.594-37.735h11.532l-.672 36.734.25 7.688h18.031Zm20.54-31.141c4.281 0 7.63.965 10.047 2.89 2.426 1.919 3.64 4.602 3.64 8.048 0 1.011-.167 4.183-.5 9.515a142.652 142.652 0 0 1-.25 4.813 59.908 59.908 0 0 0-.171 4.203c0 .95.14 1.605.422 1.969.28.367.78.547 1.5.547.55 0 1.273-.114 2.172-.344l.828.672-1 5.844c-1.782 1.167-3.813 1.863-6.094 2.093-1.668-.168-3.059-.765-4.172-1.797-1.117-1.03-1.867-2.46-2.25-4.296h-.594c-2.781 2.949-5.648 5.007-8.593 6.171-4.012-.054-7.157-1.109-9.438-3.171-2.281-2.063-3.422-4.875-3.422-8.438 0-2.781.707-4.96 2.125-6.547 1.426-1.582 3.586-2.656 6.485-3.219l12.765-2.421v-3.422c0-3.614-1.781-5.422-5.344-5.422-1.718 0-3.543.39-5.468 1.172-1.918.78-4.075 2.007-6.47 3.672l-.827-.5-1.25-7.344a30.29 30.29 0 0 1 7.672-3.469c2.726-.812 5.457-1.219 8.187-1.219Zm-5.437 24.047c-.887.23-1.54.61-1.953 1.14-.418.524-.625 1.313-.625 2.376 0 1.449.382 2.574 1.156 3.375.781.804 1.867 1.203 3.265 1.203 2.164 0 4.446-1.274 6.844-3.828l.172-6.188Zm62.702-1.578.25 7c0 .95.125 1.605.375 1.969.25.367.708.547 1.375.547.614 0 1.368-.114 2.266-.344l.75.672-.922 5.844a14.506 14.506 0 0 1-6.187 2.093c-1.719-.168-3.168-.75-4.344-1.75-1.168-1.008-1.969-2.375-2.406-4.093h-.672c-2.73 2.5-5.512 4.417-8.344 5.75-5.46 0-9.695-1.735-12.703-5.204-3-3.476-4.5-8.312-4.5-14.5 0-6.562 1.723-11.593 5.172-15.093 3.445-3.508 8.234-5.266 14.36-5.266 1.613 0 3.394.168 5.343.5l-.172-18.781 11.031-.844Zm-16.28-14.86c-5.563 0-8.345 3.532-8.345 10.594 0 4.399.665 7.711 2 9.938 1.333 2.23 3.282 3.344 5.844 3.344 2.446 0 4.703-1.141 6.766-3.422l.172-4.594-.25-14.36c-2.18-1-4.242-1.5-6.188-1.5Zm60.193 14.86.25 7c0 .95.125 1.605.375 1.969.25.367.707.547 1.375.547.613 0 1.367-.114 2.266-.344l.75.672-.922 5.844a14.506 14.506 0 0 1-6.188 2.093c-1.718-.168-3.168-.75-4.343-1.75-1.168-1.008-1.969-2.375-2.407-4.093h-.671c-2.73 2.5-5.512 4.417-8.344 5.75-5.461 0-9.695-1.735-12.703-5.204-3-3.476-4.5-8.312-4.5-14.5 0-6.562 1.722-11.593 5.172-15.093 3.445-3.508 8.234-5.266 14.359-5.266 1.613 0 3.394.168 5.344.5l-.172-18.781 11.031-.844Zm-16.281-14.86c-5.563 0-8.344 3.532-8.344 10.594 0 4.399.664 7.711 2 9.938 1.332 2.23 3.281 3.344 5.844 3.344 2.445 0 4.703-1.141 6.766-3.422l.171-4.594-.25-14.36c-2.18-1-4.242-1.5-6.187-1.5Zm57.85 13.938-22.531.172c.5 6.95 4.031 10.422 10.594 10.422 3.457 0 7.3-.973 11.53-2.922l.907.594-1.656 8.265c-4.23 1.551-8.211 2.329-11.938 2.329-6.125 0-10.93-1.774-14.406-5.329-3.48-3.562-5.219-8.488-5.219-14.78 0-6.24 1.696-11.18 5.094-14.829 3.395-3.645 7.985-5.469 13.766-5.469 4.957 0 8.785 1.356 11.484 4.063 2.695 2.699 4.047 6.469 4.047 11.312 0 1.274-.137 2.883-.406 4.828Zm-8.015-7.437c0-2.22-.5-3.895-1.5-5.032-1-1.144-2.477-1.718-4.422-1.718-2.168 0-3.977.71-5.422 2.125-1.45 1.418-2.422 3.464-2.922 6.14l14.11-.343Zm38.826-13.438c.5 0 1.195.059 2.094.172v10.266l-1.172.422c-.95-.395-1.98-.594-3.094-.594-3.23 0-6.152 2.09-8.766 6.265v5.266l.594 17.11h-11.11l.673-16.032-.5-22.031 10.515-.922-.093 7.594h.671c2.727-5.008 6.125-7.516 10.188-7.516Zm20.615-.578c3.79 0 7.352.64 10.688 1.922l-1.5 8.172-1.329.422c-1.617-1.063-3.23-1.868-4.843-2.422-1.618-.551-3.04-.828-4.266-.828-1.336 0-2.39.351-3.172 1.047-.781.687-1.172 1.53-1.172 2.53 0 1.18.516 2.126 1.547 2.845 1.031.718 2.66 1.527 4.89 2.421 2.227.887 4.063 1.75 5.5 2.594 1.446.836 2.688 1.992 3.72 3.469 1.03 1.469 1.546 3.289 1.546 5.453 0 2.23-.574 4.309-1.718 6.234-1.137 1.918-2.875 3.477-5.22 4.672-2.335 1.188-5.198 1.782-8.593 1.782-4 0-8.148-.833-12.437-2.5l1.25-8.688 1.093-.656a21.378 21.378 0 0 0 5.75 3.469c2.125.855 3.989 1.28 5.594 1.28 1.508 0 2.68-.374 3.516-1.124.832-.75 1.25-1.656 1.25-2.719 0-1.164-.516-2.11-1.547-2.828-1.031-.727-2.656-1.535-4.875-2.422-2.281-1-4.149-1.898-5.594-2.703-1.45-.813-2.687-1.969-3.719-3.469-1.03-1.508-1.546-3.375-1.546-5.594 0-3.625 1.363-6.586 4.093-8.89 2.727-2.313 6.426-3.469 11.094-3.469Zm0 0" fill="#fff" fill-opacity="1"/></svg>