<svg xmlns="http://www.w3.org/2000/svg" preserveAspectRatio="xMidYMid meet" version="1.0" viewBox="0 0 705 591" zoomAndPan="magnify"><defs><clipPath id="a"><path d="M228.188 0h268.445v590H228.188Zm0 0" clip-rule="nonzero"/></clipPath></defs><g clip-path="url(#a)"><path d="m234.285.785 10.754 36.508h86.016L321.375.785h6.453l168.805 588.43h-7.528l-11.828-42.95h-86.015l11.828 42.95h-7.527L227.835.785Zm12.903 44.027 18.28 64.426h86.012l-18.277-64.425ZM434.27 395.938l-18.278-64.43h-86.015l18.28 64.43Zm-83.864 7.516 18.278 64.426h86.015l-18.277-64.426Zm63.438-78.387-18.281-64.425H309.55l18.277 64.425Zm-20.43-71.941-18.277-64.43H289.12l18.277 64.43ZM371.91 181.18l-18.277-64.426h-86.016l18.278 64.426Zm103.22 358.64-18.281-64.425h-86.012l18.277 64.425Zm0 0" fill="#aa0" fill-opacity="1" fill-rule="nonzero"/></g></svg>